<svg xmlns="http://www.w3.org/2000/svg" width="1000" height="300" viewBox="0 0 1000 300" role="img" aria-labelledby="t d">
  <title id="t">GitHub activity for romankhadka</title>
  <desc id="d">2,739 pull requests opened, 2,280 reviewed, 3,937 commits, across 113 repositories since 2016. Updated 2026-08-02.</desc>
  <defs>
    <linearGradient id="p" x1="0" y1="0" x2="1" y2="1">
      <stop offset="0" stop-color="#121815"/><stop offset="0.55" stop-color="#101512"/><stop offset="1" stop-color="#0b100d"/>
    </linearGradient>
    <pattern id="g" width="40" height="40" patternUnits="userSpaceOnUse">
      <path d="M 40 0 L 0 0 0 40" fill="none" stroke="#ebe7dd" stroke-width="0.7" opacity="0.07"/>
    </pattern>
    <pattern id="m" width="8" height="8" patternUnits="userSpaceOnUse">
      <path d="M 8 0 L 0 0 0 8" fill="none" stroke="#ebe7dd" stroke-width="0.35" opacity="0.05"/>
    </pattern>
    <pattern id="s" width="24" height="24" patternUnits="userSpaceOnUse">
      <circle cx="3" cy="7" r="0.45" fill="#ebe7dd" opacity="0.14"/>
      <circle cx="17" cy="3" r="0.35" fill="#ebe7dd" opacity="0.1"/>
      <circle cx="11" cy="19" r="0.4" fill="#ebe7dd" opacity="0.12"/>
      <circle cx="22" cy="14" r="0.3" fill="#ebe7dd" opacity="0.09"/>
    </pattern>
    <clipPath id="f"><rect x="16" y="16" width="968" height="268" rx="2"/></clipPath>
  </defs>

  <rect width="1000" height="300" fill="url(#p)"/>
  <g clip-path="url(#f)">
    <rect x="16" y="16" width="968" height="268" fill="url(#g)"/>
    <path d="M 700 -40 L 1040 100 L 1040 340 L 860 340 Z" fill="#17342f" opacity="0.62"/>
    <path d="M 806 -40 L 1040 60 L 1040 340 L 970 340 Z" fill="url(#m)" opacity="0.9"/>
    <rect width="1000" height="300" fill="url(#s)" opacity="0.55"/>
  </g>
  <rect x="16.5" y="16.5" width="967" height="267" rx="2" fill="none" stroke="#ebe7dd" stroke-width="1" opacity="0.55"/>

  <text x="44" y="53" fill="#ebe7dd" font-family="'Courier New',monospace" font-size="14" letter-spacing="2.6">RK / ACTIVITY</text>
  <path d="M 218 48 H 296" fill="none" stroke="#ebe7dd" stroke-width="1" opacity="0.7"/>
  <circle cx="308" cy="48" r="3.5" fill="#ff7657"/>
  <text x="958" y="53" fill="#9ca69f" text-anchor="end" font-family="'Courier New',monospace" font-size="14" letter-spacing="2">SINCE 2016</text>

  <text x="50" y="88" fill="#a8b0aa" font-family="'Courier New',monospace" font-size="14" letter-spacing="0.5">1,224 PRs in 2026, 1.80x all of 2025</text>

    <text x="52" y="128" fill="#9ca69f" font-family="'Courier New',monospace" font-size="13" letter-spacing="2.2">PULL REQUESTS</text>
    <text x="50" y="184" fill="#ebe7dd" font-family="'Iowan Old Style','Palatino Linotype',Palatino,Georgia,serif" font-size="52" letter-spacing="-1.5">2,739</text>
    <text x="284" y="128" fill="#9ca69f" font-family="'Courier New',monospace" font-size="13" letter-spacing="2.2">REVIEWED</text>
    <text x="282" y="184" fill="#ebe7dd" font-family="'Iowan Old Style','Palatino Linotype',Palatino,Georgia,serif" font-size="52" letter-spacing="-1.5">2,280</text>
    <text x="516" y="128" fill="#9ca69f" font-family="'Courier New',monospace" font-size="13" letter-spacing="2.2">COMMITS</text>
    <text x="514" y="184" fill="#ebe7dd" font-family="'Iowan Old Style','Palatino Linotype',Palatino,Georgia,serif" font-size="52" letter-spacing="-1.5">3,937</text>
    <text x="748" y="128" fill="#9ca69f" font-family="'Courier New',monospace" font-size="13" letter-spacing="2.2">REPOS CREATED</text>
    <text x="746" y="184" fill="#ebe7dd" font-family="'Iowan Old Style','Palatino Linotype',Palatino,Georgia,serif" font-size="52" letter-spacing="-1.5">113</text>

  <path d="M 52 248.5 H 948" fill="none" stroke="#ebe7dd" stroke-width="1" opacity="0.28"/>
  <rect x="52.0" y="240.0" width="15.3" height="8.0" fill="#ebe7dd" opacity="0.55"/><rect x="69.3" y="240.4" width="15.3" height="7.6" fill="#ebe7dd" opacity="0.55"/><rect x="86.5" y="242.7" width="15.3" height="5.3" fill="#ebe7dd" opacity="0.55"/><rect x="103.8" y="243.0" width="15.3" height="5.0" fill="#ebe7dd" opacity="0.55"/><rect x="121.1" y="240.4" width="15.3" height="7.6" fill="#ebe7dd" opacity="0.55"/><rect x="138.3" y="243.7" width="15.3" height="4.3" fill="#ebe7dd" opacity="0.55"/><rect x="155.6" y="241.9" width="15.3" height="6.1" fill="#ebe7dd" opacity="0.55"/><rect x="172.9" y="239.0" width="15.3" height="9.0" fill="#ebe7dd" opacity="0.55"/><rect x="190.2" y="242.4" width="15.3" height="5.6" fill="#ebe7dd" opacity="0.55"/><rect x="207.4" y="240.0" width="15.3" height="8.0" fill="#ebe7dd" opacity="0.55"/><rect x="224.7" y="238.1" width="15.3" height="9.9" fill="#ebe7dd" opacity="0.55"/><rect x="242.0" y="240.7" width="15.3" height="7.3" fill="#ebe7dd" opacity="0.55"/><rect x="259.2" y="240.3" width="15.3" height="7.7" fill="#ebe7dd" opacity="0.55"/><rect x="276.5" y="245.4" width="15.3" height="2.6" fill="#ebe7dd" opacity="0.55"/><rect x="293.8" y="245.0" width="15.3" height="3.0" fill="#ebe7dd" opacity="0.55"/><rect x="311.0" y="239.0" width="15.3" height="9.0" fill="#ebe7dd" opacity="0.55"/><rect x="328.3" y="243.3" width="15.3" height="4.7" fill="#ebe7dd" opacity="0.55"/><rect x="345.6" y="244.7" width="15.3" height="3.3" fill="#ebe7dd" opacity="0.55"/><rect x="362.8" y="244.4" width="15.3" height="3.6" fill="#ebe7dd" opacity="0.55"/><rect x="380.1" y="242.1" width="15.3" height="5.9" fill="#ebe7dd" opacity="0.55"/><rect x="397.4" y="244.8" width="15.3" height="3.2" fill="#ebe7dd" opacity="0.55"/><rect x="414.7" y="246.5" width="15.3" height="1.5" fill="#ebe7dd" opacity="0.55"/><rect x="431.9" y="244.3" width="15.3" height="3.7" fill="#ebe7dd" opacity="0.55"/><rect x="449.2" y="242.7" width="15.3" height="5.3" fill="#ebe7dd" opacity="0.55"/><rect x="466.5" y="243.8" width="15.3" height="4.2" fill="#ebe7dd" opacity="0.55"/><rect x="483.7" y="245.8" width="15.3" height="2.2" fill="#ebe7dd" opacity="0.55"/><rect x="501.0" y="241.8" width="15.3" height="6.2" fill="#ebe7dd" opacity="0.55"/><rect x="518.3" y="243.0" width="15.3" height="5.0" fill="#ebe7dd" opacity="0.55"/><rect x="535.5" y="241.8" width="15.3" height="6.2" fill="#ebe7dd" opacity="0.55"/><rect x="552.8" y="235.2" width="15.3" height="12.8" fill="#ebe7dd" opacity="0.55"/><rect x="570.1" y="222.1" width="15.3" height="25.9" fill="#ebe7dd" opacity="0.55"/><rect x="587.3" y="229.3" width="15.3" height="18.7" fill="#ebe7dd" opacity="0.55"/><rect x="604.6" y="239.2" width="15.3" height="8.8" fill="#ebe7dd" opacity="0.55"/><rect x="621.9" y="242.3" width="15.3" height="5.7" fill="#ebe7dd" opacity="0.55"/><rect x="639.2" y="240.0" width="15.3" height="8.0" fill="#ebe7dd" opacity="0.55"/><rect x="656.4" y="233.1" width="15.3" height="14.9" fill="#ebe7dd" opacity="0.55"/><rect x="673.7" y="240.6" width="15.3" height="7.4" fill="#ebe7dd" opacity="0.55"/><rect x="691.0" y="227.3" width="15.3" height="20.7" fill="#ebe7dd" opacity="0.55"/><rect x="708.2" y="243.7" width="15.3" height="4.3" fill="#ebe7dd" opacity="0.55"/><rect x="725.5" y="243.1" width="15.3" height="4.9" fill="#ebe7dd" opacity="0.55"/><rect x="742.8" y="237.8" width="15.3" height="10.2" fill="#ebe7dd" opacity="0.55"/><rect x="760.0" y="240.1" width="15.3" height="7.9" fill="#ebe7dd" opacity="0.55"/><rect x="777.3" y="244.2" width="15.3" height="3.8" fill="#ebe7dd" opacity="0.55"/><rect x="794.6" y="243.8" width="15.3" height="4.2" fill="#ebe7dd" opacity="0.55"/><rect x="811.8" y="229.8" width="15.3" height="18.2" fill="#ebe7dd" opacity="0.55"/><rect x="829.1" y="237.1" width="15.3" height="10.9" fill="#ebe7dd" opacity="0.55"/><rect x="846.4" y="238.2" width="15.3" height="9.8" fill="#ebe7dd" opacity="0.55"/><rect x="863.7" y="233.4" width="15.3" height="14.6" fill="#ebe7dd" opacity="0.55"/><rect x="880.9" y="235.1" width="15.3" height="12.9" fill="#ebe7dd" opacity="0.55"/><rect x="898.2" y="226.0" width="15.3" height="22.0" fill="#ebe7dd" opacity="0.55"/><rect x="915.5" y="235.7" width="15.3" height="12.3" fill="#ebe7dd" opacity="0.55"/><rect x="932.7" y="204.0" width="15.3" height="44.0" fill="#ff7657" opacity="1"/>
  <text x="52" y="272" fill="#9ca69f" font-family="'Courier New',monospace" font-size="12" letter-spacing="1.6">52 WEEKS &#183; LAST 7 DAYS IN COLOUR</text>
  <text x="948" y="272" fill="#9ca69f" text-anchor="end" font-family="'Courier New',monospace" font-size="12" letter-spacing="1.6">UPDATED 2026-08-02</text>
</svg>
